<svg xmlns="http://www.w3.org/2000/svg" viewBox="0 0 613.97 246.52"><defs><style>.cls-1{fill:#6c1d45;}.cls-2,.cls-3,.cls-4,.cls-5{fill:none;stroke-miterlimit:10;}.cls-2,.cls-3{stroke:#dd7123;}.cls-2,.cls-4{stroke-width:4px;}.cls-3,.cls-5{stroke-width:2px;}.cls-4,.cls-5{stroke:#dd4330;}.cls-6{font-size:50.59px;fill:#d6196d;font-family:Aileron-Regular, Aileron;letter-spacing:0.2em;}.cls-7{font-size:63.24px;fill:#6e1948;font-family:Aileron-Heavy, Aileron;font-weight:800;letter-spacing:0.1em;}.cls-8{letter-spacing:0.09em;}.cls-9{letter-spacing:0.1em;}.cls-10{fill:#eed176;}.cls-11{fill:#d21665;}.cls-12{fill:#f4b541;}</style></defs><title>Hospital-logo</title><g id="Layer_2" data-name="Layer 2"><g id="Layer_1-2" data-name="Layer 1"><path class="cls-1" d="M164.87,15.31C105.74-.15,46.15,30.5,26.71,81.59c-15.9,41.79-2.82,91.65,33.3,124a59.28,59.28,0,0,1,40.56-12.2,77.78,77.78,0,0,0,12.2-3.63,79.18,79.18,0,0,0,24.4-15.17c5.45-5.08,11.66-5.44,13.52-3.29,1.7,2,.69,7.08-3.3,11.54l-13.85,13.84c-3.27,2.16-4.5,6.08-3.29,8.91,1.51,3.53,6.84,5.39,11.21,2.64a136.69,136.69,0,0,0,50.45-8.58c5.55-3.93,11.13-3.93,12.53-2s-.34,6.91-5.28,10.89c-6.95,6.92-30,28.16-66.93,32.64a115.14,115.14,0,0,1-65.95-11.87A119.89,119.89,0,0,1,.66,109,115.19,115.19,0,0,1,80.13,6.74a132.2,132.2,0,0,1,65.94-1Z"/><path class="cls-2" d="M137.13,38.58,120,41.74a101.24,101.24,0,0,0-27.1,56A432.39,432.39,0,0,0,146.62,84.2a430.29,430.29,0,0,0,50.59-19.88L197.66,49"/><path class="cls-3" d="M92.87,97.75c-14.07,17-21.38,34.33-15.81,41.55,7.73,10,39-.89,44.27-2.71,16.52-5.76,20.89-9.44,36.13-14,8.6-2.57,19-2.94,27.55,2.26,11.57,7.05,16.32,24.19,13.55,42.91"/><circle class="cls-4" cx="193.91" cy="177.4" r="11.52"/><circle class="cls-5" cx="140.95" cy="38.41" r="4.8"/><circle class="cls-5" cx="197.87" cy="45.26" r="4.8"/><text class="cls-6" transform="translate(283.81 182.25)">Hospital</text><text class="cls-7" transform="translate(229.98 109.86)">ST. <tspan class="cls-8" x="131.78" y="0">J</tspan><tspan class="cls-9" x="176.55" y="0">AMES</tspan></text><rect class="cls-10" x="221.18" y="127.55" width="392.79" height="3.86"/><path class="cls-11" d="M176.09,13.62c-60.75-15.88-122,15.6-141.94,68.09-16.34,42.94-2.89,94.17,34.22,127.38A60.91,60.91,0,0,1,110,196.55a80.17,80.17,0,0,0,12.54-3.72,81.33,81.33,0,0,0,25.07-15.59c5.59-5.22,12-5.59,13.89-3.38,1.74,2,.7,7.27-3.39,11.85l-14.23,14.23c-3.36,2.22-4.63,6.25-3.39,9.15,1.55,3.63,7,5.54,11.52,2.71a141.18,141.18,0,0,0,26.76-2A140,140,0,0,0,203.87,203c5.71-4,11.44-4,12.87-2s-.34,7.09-5.42,11.18c-7.14,7.11-30.86,28.93-68.77,33.53A118.27,118.27,0,0,1,74.8,233.48,123.19,123.19,0,0,1,7.39,109.83,118.33,118.33,0,0,1,89,4.81a135.94,135.94,0,0,1,67.75-1Z"/><rect class="cls-12" x="415.97" y="127.55" width="198" height="3.86"/></g></g></svg>