<svg xmlns="http://www.w3.org/2000/svg" viewBox="0 0 375.18 425.81"><defs><style>.cls-1{fill:#6c1d45;}.cls-2,.cls-3,.cls-4,.cls-5{fill:none;stroke-miterlimit:10;}.cls-2,.cls-3{stroke:#dd7123;}.cls-2,.cls-4{stroke-width:4px;}.cls-3,.cls-5{stroke-width:2px;}.cls-4,.cls-5{stroke:#dd4330;}.cls-6{fill:#d21665;}</style></defs><title>logo-</title><g id="Layer_2" data-name="Layer 2"><g id="Layer_2-2" data-name="Layer 2"><path class="cls-1" d="M284.78,26.45C182.64-.25,79.72,52.68,46.14,140.93c-27.48,72.19-4.87,158.32,57.52,214.15A102.31,102.31,0,0,1,173.72,334a132.75,132.75,0,0,0,21.07-6.26,136.75,136.75,0,0,0,42.15-26.2c9.41-8.78,20.14-9.4,23.35-5.7,2.93,3.39,1.19,12.24-5.7,19.94q-12,12-23.92,23.92c-5.65,3.73-7.78,10.5-5.69,15.38,2.6,6.1,11.82,9.32,19.36,4.55a236,236,0,0,0,87.14-14.8c9.6-6.8,19.23-6.79,21.65-3.42s-.59,11.92-9.12,18.79c-12,12-51.89,48.66-115.62,56.39-55.6,6.75-98-12.36-113.91-20.51a209.08,209.08,0,0,1-86-80.3C-4.16,260.25-.79,206.34,1.14,188.2A199,199,0,0,1,138.41,11.64,228.39,228.39,0,0,1,252.32,9.93Z"/><path class="cls-2" d="M236.87,66.63l-29.64,5.46a175,175,0,0,0-46.82,96.75,745.85,745.85,0,0,0,92.85-23.41,744.63,744.63,0,0,0,87.38-34.33l.78-26.52"/><path class="cls-3" d="M160.41,168.84c-24.3,29.45-36.92,59.3-27.3,71.78,13.34,17.31,67.44-1.54,76.46-4.69C238.1,226,245.65,219.62,272,211.75c14.86-4.44,32.85-5.08,47.59,3.9,20,12.18,28.19,41.79,23.41,74.12"/><circle class="cls-4" cx="334.95" cy="306.42" r="19.9"/><circle class="cls-5" cx="243.47" cy="66.34" r="8.29"/><circle class="cls-5" cx="341.78" cy="78.17" r="8.29"/><path class="cls-6" d="M304.16,23.53C199.23-3.91,93.49,50.48,59,141.14c-28.23,74.17-5,162.66,59.1,220a105.11,105.11,0,0,1,72-21.65,137.94,137.94,0,0,0,21.65-6.44A140.24,140.24,0,0,0,255,306.15c9.67-9,20.69-9.65,24-5.85,3,3.48,1.23,12.57-5.85,20.48l-24.57,24.58c-5.81,3.83-8,10.78-5.86,15.8,2.68,6.27,12.15,9.57,19.9,4.68a242.52,242.52,0,0,0,89.53-15.22c9.86-7,19.75-7,22.23-3.51s-.6,12.25-9.36,19.31c-12.34,12.29-53.32,50-118.78,57.93-57.13,6.93-100.73-12.7-117-21.06-17.37-8.73-59-32.55-88.36-82.51-33.54-57-30.08-112.43-28.09-131.07a204.4,204.4,0,0,1,141-181.4,234.82,234.82,0,0,1,117-1.75Z"/></g></g></svg>